<svg width="66" height="65" viewBox="0 0 66 65" fill="none" xmlns="http://www.w3.org/2000/svg">
<g clip-path="url(#clip0_667_136)">
<path d="M23.0191 20.4361C27.2427 20.4361 30.0029 16.023 30.0029 11.5475C30.0029 7.06246 27.2348 2.65894 23.0191 2.65894C18.7955 2.65894 16.0352 7.07199 16.0352 11.5475C16.0352 16.0326 18.8035 20.4361 23.0191 20.4361ZM23.0191 5.19853C25.4281 5.19853 27.4634 8.10598 27.4634 11.5475C27.4634 14.989 25.4281 17.8965 23.0191 17.8965C20.61 17.8965 18.5748 14.989 18.5748 11.5475C18.5748 8.10598 20.6101 5.19853 23.0191 5.19853Z" fill="url(#paint0_linear_667_136)"/>
<path d="M42.0662 20.4361C46.2898 20.4361 49.05 16.023 49.05 11.5475C49.05 7.06246 46.2819 2.65894 42.0662 2.65894C37.8426 2.65894 35.0823 7.07199 35.0823 11.5475C35.0823 16.0326 37.8504 20.4361 42.0662 20.4361ZM42.0662 5.19853C44.4752 5.19853 46.5105 8.10598 46.5105 11.5475C46.5105 14.989 44.4752 17.8965 42.0662 17.8965C39.6571 17.8965 37.6219 14.989 37.6219 11.5475C37.6219 8.10598 39.6571 5.19853 42.0662 5.19853Z" fill="url(#paint1_linear_667_136)"/>
<path d="M11.9943 34.483C15.6587 32.3691 15.8324 27.1628 13.5987 23.2935C11.3574 19.4091 6.75883 16.9787 3.10626 19.0876C-0.548851 21.1971 -0.737543 26.3975 1.50238 30.277C3.74192 34.156 8.35814 36.5832 11.9943 34.483ZM4.37593 21.287C6.81127 19.8809 9.96634 22.0796 11.3992 24.5628C11.3992 24.5628 11.3992 24.5629 11.3993 24.563C12.8285 27.0388 13.165 30.8758 10.7247 32.2835C8.28881 33.6906 5.13349 31.4871 3.70167 29.0073C2.27149 26.5298 1.9383 22.6939 4.37593 21.287Z" fill="url(#paint2_linear_667_136)"/>
<path d="M53.0903 34.4825C56.7474 36.5951 61.3447 34.1537 63.5829 30.2771C65.8366 26.3738 65.612 21.1843 61.9791 19.0877C58.31 16.9695 53.7154 19.4306 51.4866 23.2932C49.2399 27.1849 49.443 32.3786 53.0903 34.4825ZM53.6861 24.5626C55.1106 22.0936 58.266 19.8759 60.7094 21.2869C63.1454 22.6929 62.8154 26.527 61.3836 29.0072C59.9544 31.4824 56.7991 33.6921 54.3599 32.283C51.9278 30.88 52.2497 27.0509 53.6861 24.5626Z" fill="url(#paint3_linear_667_136)"/>
<path d="M53.7483 56.8792C54.4496 56.8792 55.0181 56.3107 55.0181 55.6094C55.0181 54.9081 54.4496 54.3396 53.7483 54.3396C53.047 54.3396 52.4785 54.9081 52.4785 55.6094C52.4785 56.3107 53.047 56.8792 53.7483 56.8792Z" fill="url(#paint4_linear_667_136)"/>
<path d="M8.5716 51.4719C9.2997 56.8066 13.0601 61.1266 18.8241 62.1386C22.4879 62.7811 25.9952 61.8651 28.7535 59.785C30.9844 58.1031 34.1006 58.1029 36.3316 59.785C39.1726 61.9274 42.699 62.763 46.2612 62.1386C47.7188 61.8827 49.078 61.4124 50.3008 60.7406C50.9155 60.4029 51.14 59.6309 50.8024 59.0163C50.4647 58.4016 49.6928 58.1771 49.0781 58.5147C48.1 59.052 47.0045 59.4298 45.8222 59.6372C42.961 60.1388 40.1333 59.4714 37.8605 57.7573C34.7295 55.3966 30.3556 55.3966 27.2244 57.7573C24.9515 59.4714 22.124 60.1387 19.2629 59.6372C13.9647 58.707 11.566 54.6318 11.0876 51.1283C10.4653 46.5693 12.6059 42.41 16.5421 40.532C18.3601 39.6628 19.8132 38.249 20.6335 36.5509C23.2036 31.2309 27.6556 28.0547 32.5424 28.0547C37.4293 28.0547 41.8813 31.2309 44.4514 36.5509C45.2716 38.249 46.7247 39.6628 48.5437 40.5324C52.1299 42.2438 54.2551 45.9006 54.0897 50.0759C54.0619 50.7767 54.6076 51.3672 55.3084 51.395C56.0071 51.4225 56.5998 50.8772 56.6274 50.1765C56.8336 44.9699 54.1553 40.3963 49.6383 38.2408C48.3386 37.6193 47.3085 36.627 46.7381 35.4462C43.9662 29.708 38.7799 25.5151 32.5426 25.5151C26.3014 25.5151 21.1168 29.7124 18.347 35.4462C17.7766 36.6269 16.7466 37.6193 15.4477 38.2403C10.2928 40.7001 7.84414 46.1437 8.5716 51.4719Z" fill="url(#paint5_linear_667_136)"/>
</g>
<defs>
<linearGradient id="paint0_linear_667_136" x1="23.0191" y1="2.65894" x2="23.0191" y2="20.4361" gradientUnits="userSpaceOnUse">
<stop offset="0.114583" stop-color="#FB7617"/>
<stop offset="1" stop-color="#FFA800"/>
</linearGradient>
<linearGradient id="paint1_linear_667_136" x1="42.0662" y1="2.65894" x2="42.0662" y2="20.4361" gradientUnits="userSpaceOnUse">
<stop offset="0.114583" stop-color="#FB7617"/>
<stop offset="1" stop-color="#FFA800"/>
</linearGradient>
<linearGradient id="paint2_linear_667_136" x1="7.55057" y1="18.3086" x2="7.55057" y2="35.2575" gradientUnits="userSpaceOnUse">
<stop offset="0.114583" stop-color="#FB7617"/>
<stop offset="1" stop-color="#FFA800"/>
</linearGradient>
<linearGradient id="paint3_linear_667_136" x1="57.534" y1="18.3079" x2="57.534" y2="35.262" gradientUnits="userSpaceOnUse">
<stop offset="0.114583" stop-color="#FB7617"/>
<stop offset="1" stop-color="#FFA800"/>
</linearGradient>
<linearGradient id="paint4_linear_667_136" x1="53.7483" y1="54.3396" x2="53.7483" y2="56.8792" gradientUnits="userSpaceOnUse">
<stop offset="0.114583" stop-color="#FB7617"/>
<stop offset="1" stop-color="#FFA800"/>
</linearGradient>
<linearGradient id="paint5_linear_667_136" x1="32.5422" y1="25.5151" x2="32.5422" y2="62.3409" gradientUnits="userSpaceOnUse">
<stop offset="0.114583" stop-color="#FB7617"/>
<stop offset="1" stop-color="#FFA800"/>
</linearGradient>
<clipPath id="clip0_667_136">
<rect width="65" height="65" fill="white" transform="translate(0.0421143)"/>
</clipPath>
</defs>
</svg>
