<svg width="62" height="61" viewBox="0 0 62 61" fill="none" xmlns="http://www.w3.org/2000/svg">
<path d="M2.09029 10.0726C3.50324 8.53444 5.46409 7.58753 7.56792 7.42742C7.73096 5.36262 8.6958 3.43814 10.2631 2.05149C11.7874 0.724065 13.7562 -0.00618609 15.7941 3.94799e-05C17.8319 0.00626505 19.7961 0.748532 21.3119 2.08524C22.4543 3.10013 23.282 4.41057 23.7 5.86617C24.1181 7.32177 24.1095 8.86355 23.6753 10.3146C23.3669 11.2971 23.3325 12.3427 23.5756 13.3426C23.8186 14.3426 24.3303 15.2604 25.0573 16.0005L45.6987 36.2567C46.4524 36.9702 47.3872 37.4723 48.4058 37.7108C49.4243 37.9494 50.4894 37.9156 51.4902 37.6131C52.9687 37.1868 54.5396 37.1783 56.0228 37.5886C57.506 37.9989 58.8412 38.8113 59.8752 39.9326C61.2373 41.4201 61.9936 43.3478 62 45.3477C62.0063 47.3477 61.2622 49.2799 59.9096 50.7757C58.4969 52.3142 56.5359 53.2612 54.432 53.4209C54.3414 54.5473 54.011 55.6426 53.4622 56.6359C52.9133 57.6291 52.1583 58.4983 51.2457 59.1873C50.3332 59.8762 49.2835 60.3696 48.1645 60.6355C47.0456 60.9014 45.8822 60.9339 44.7496 60.7309C43.6171 60.528 42.5405 60.094 41.5895 59.4571C40.6385 58.8203 39.8342 57.9946 39.2287 57.0336C38.6231 56.0726 38.2298 54.9976 38.0741 53.8781C37.9183 52.7585 38.0037 51.6194 38.3246 50.5342C38.6329 49.5517 38.6674 48.5061 38.4243 47.5062C38.1813 46.5062 37.6696 45.5884 36.9426 44.8483L16.3012 24.5921C15.5471 23.8785 14.6119 23.3763 13.5929 23.1377C12.5739 22.8992 11.5084 22.933 10.5073 23.2357C9.02916 23.6616 7.45864 23.6699 5.97594 23.2597C4.49324 22.8494 3.15843 22.0372 2.12468 20.9162C0.762688 19.4285 0.00637817 17.5008 3.8147e-05 15.5008C-0.00630569 13.5009 0.737759 11.5686 2.09029 10.0726ZM3.37735 19.7947C4.1987 20.685 5.25907 21.3301 6.43686 21.656C7.61466 21.9819 8.8622 21.9755 10.0364 21.6374C11.3289 21.2521 12.703 21.2138 14.0157 21.5266C15.3283 21.8394 16.5316 22.4918 17.5001 23.4159L38.141 43.6741C39.083 44.6244 39.748 45.8053 40.0667 47.0937C40.3854 48.382 40.3462 49.7307 39.9532 50.9992C39.6085 52.1516 39.6019 53.3761 39.9341 54.5321C40.2663 55.6881 40.9238 56.7287 41.8312 57.5346C42.7773 58.3814 43.9562 58.9364 45.2212 59.1308C46.4862 59.3252 47.7815 59.1503 48.9461 58.6279C50.1106 58.1055 51.0929 57.2586 51.7709 56.1926C52.4489 55.1265 52.7926 53.8884 52.7593 52.6322C52.7567 52.5213 52.7766 52.4109 52.818 52.3077C52.8594 52.2044 52.9215 52.1104 53.0004 52.0309C53.0794 51.9515 53.1737 51.8884 53.2779 51.8453C53.3821 51.8022 53.494 51.7799 53.607 51.7798H53.6279C54.5714 51.8051 55.5092 51.6288 56.3764 51.2631C57.2436 50.8974 58.0194 50.351 58.6501 49.6618C59.7238 48.4744 60.3145 46.9407 60.3095 45.3531C60.3045 43.7656 59.7042 42.2354 58.623 41.0546C57.8019 40.164 56.7416 39.5186 55.5637 39.1926C54.3858 38.8666 53.1382 38.8731 51.9639 39.2114C50.6715 39.5973 49.2973 39.6359 47.9845 39.3231C46.6717 39.0102 45.4685 38.3575 44.5002 37.4329L23.8589 17.1747C22.917 16.2244 22.252 15.0435 21.9334 13.7551C21.6147 12.4667 21.654 11.118 22.0472 9.84963C22.3916 8.69715 22.3981 7.47274 22.0659 6.31681C21.7338 5.16088 21.0764 4.12022 20.1692 3.31417C19.2229 2.46757 18.044 1.91262 16.779 1.71831C15.514 1.52399 14.2187 1.6989 13.0541 2.22128C11.8896 2.74365 10.9072 3.59045 10.2291 4.65639C9.55095 5.72232 9.20703 6.96037 9.24008 8.2166C9.24299 8.32924 9.2225 8.44128 9.17986 8.5459C9.13722 8.65052 9.07332 8.74552 8.99207 8.82512C8.9107 8.90455 8.81386 8.96709 8.70733 9.00899C8.6008 9.05089 8.48677 9.0713 8.37203 9.06901C7.09199 9.03632 5.8304 9.37368 4.74419 10.0391C3.65798 10.7046 2.79507 11.6688 2.26282 12.8118C1.73056 13.9548 1.55244 15.2261 1.7506 16.4677C1.94876 17.7092 2.51447 18.8662 3.37735 19.7947Z" fill="url(#paint0_linear_667_152)"/>
<path d="M7.10517 12.9849C7.19147 13.0611 7.2616 13.1532 7.31156 13.2559C7.36152 13.3586 7.39033 13.47 7.39634 13.5836C7.40234 13.6973 7.38543 13.8109 7.34657 13.9182C7.30771 14.0254 7.24767 14.1241 7.16986 14.2086C6.90663 14.5125 6.76269 14.8985 6.76389 15.2971C6.76509 15.6956 6.91137 16.0807 7.17643 16.3832C7.3876 16.6094 7.65901 16.7735 7.96016 16.857C8.26131 16.9405 8.58027 16.9401 8.8812 16.8559C9.10543 16.7956 9.3449 16.8241 9.54778 16.9354C9.75065 17.0468 9.90061 17.2318 9.9652 17.4506C10.0298 17.6694 10.0038 17.9043 9.89286 18.1045C9.78193 18.3046 9.59498 18.454 9.37247 18.5201C9.05903 18.6078 8.73459 18.6519 8.40863 18.6513C7.93015 18.6541 7.4565 18.5574 7.01891 18.3679C6.58132 18.1783 6.18973 17.9 5.86993 17.5514C5.31168 16.9292 5.00262 16.13 5.00002 15.3017C4.99741 14.4734 5.30145 13.6723 5.85578 13.0468C6.01314 12.8764 6.23312 12.7742 6.4674 12.7626C6.70167 12.751 6.93106 12.8309 7.10517 12.9849Z" fill="url(#paint1_linear_667_152)"/>
<path d="M59.9097 10.0726C58.4968 8.53444 56.5359 7.58753 54.4321 7.42742C54.269 5.36262 53.3042 3.43814 51.7369 2.05149C50.2126 0.724065 48.2437 -0.00618609 46.2059 3.94799e-05C44.1681 0.00626505 42.2039 0.748532 40.6881 2.08524C39.5457 3.10013 38.718 4.41057 38.3 5.86617C37.8819 7.32177 37.8905 8.86355 38.3247 10.3146C38.6331 11.2971 38.6675 12.3427 38.4244 13.3426C38.1814 14.3426 37.6697 15.2604 36.9427 16.0005L16.3013 36.2567C15.5476 36.9702 14.6128 37.4723 13.5942 37.7108C12.5757 37.9494 11.5106 37.9156 10.5098 37.6131C9.03134 37.1868 7.46037 37.1783 5.97721 37.5886C4.49405 37.9989 3.15882 38.8113 2.1248 39.9326C0.762742 41.4201 0.00638368 43.3478 4.02256e-05 45.3477C-0.00630323 47.3477 0.737812 49.2799 2.09041 50.7757C3.50308 52.3142 5.46409 53.2612 7.56804 53.4209C7.6586 54.5473 7.98898 55.6426 8.53782 56.6359C9.08666 57.6291 9.84175 58.4983 10.7543 59.1873C11.6668 59.8762 12.7165 60.3696 13.8355 60.6355C14.9544 60.9014 16.1178 60.9339 17.2504 60.7309C18.3829 60.5279 19.4595 60.094 20.4105 59.4571C21.3615 58.8203 22.1658 57.9946 22.7713 57.0336C23.3769 56.0726 23.7702 54.9976 23.9259 53.8781C24.0817 52.7585 23.9963 51.6194 23.6754 50.5342C23.3671 49.5517 23.3326 48.5061 23.5757 47.5062C23.8187 46.5062 24.3304 45.5884 25.0574 44.8483L45.6988 24.5921C46.4529 23.8785 47.3881 23.3763 48.4071 23.1377C49.4261 22.8992 50.4916 22.933 51.4927 23.2357C52.9708 23.6616 54.5414 23.6699 56.0241 23.2597C57.5068 22.8494 58.8416 22.0372 59.8753 20.9162C61.2373 19.4285 61.9936 17.5008 62 15.5008C62.0063 13.5009 61.2622 11.5686 59.9097 10.0726ZM58.6226 19.7947C57.8013 20.685 56.7409 21.3301 55.5631 21.656C54.3853 21.9819 53.1378 21.9755 51.9636 21.6374C50.6711 21.2521 49.297 21.2138 47.9843 21.5266C46.6717 21.8394 45.4684 22.4918 44.4999 23.4159L23.859 43.6741C22.917 44.6244 22.252 45.8053 21.9333 47.0937C21.6146 48.382 21.6538 49.7307 22.0468 50.9992C22.3915 52.1516 22.3981 53.3761 22.0659 54.5321C21.7337 55.6881 21.0762 56.7287 20.1688 57.5346C19.2227 58.3814 18.0438 58.9364 16.7788 59.1308C15.5138 59.3252 14.2185 59.1503 13.0539 58.6279C11.8894 58.1055 10.9071 57.2586 10.2291 56.1926C9.55108 55.1265 9.20736 53.8884 9.24068 52.6322C9.24333 52.5213 9.22336 52.4109 9.18196 52.3077C9.14055 52.2044 9.07855 52.1104 8.99958 52.0309C8.92061 51.9515 8.82627 51.8884 8.7221 51.8453C8.61793 51.8022 8.50603 51.7799 8.39297 51.7798H8.37215C7.42863 51.8051 6.4908 51.6288 5.6236 51.2631C4.7564 50.8974 3.98057 50.351 3.34986 49.6618C2.27617 48.4744 1.68549 46.9407 1.69049 45.3531C1.69549 43.7656 2.29584 42.2354 3.37698 41.0546C4.19811 40.164 5.25844 39.5186 6.4363 39.1926C7.61416 38.8666 8.86181 38.8731 10.0361 39.2114C11.3285 39.5973 12.7027 39.6359 14.0155 39.3231C15.3283 39.0102 16.5315 38.3575 17.4997 37.4329L38.1411 17.1747C39.083 16.2244 39.748 15.0435 40.0666 13.7551C40.3853 12.4667 40.346 11.118 39.9528 9.84963C39.6084 8.69715 39.6019 7.47274 39.9341 6.31681C40.2662 5.16088 40.9236 4.12022 41.8308 3.31417C42.7771 2.46757 43.956 1.91262 45.221 1.71831C46.486 1.52399 47.7813 1.6989 48.9459 2.22128C50.1104 2.74365 51.0928 3.59045 51.7709 4.65639C52.449 5.72232 52.793 6.96037 52.7599 8.2166C52.757 8.32924 52.7775 8.44128 52.8201 8.5459C52.8628 8.65052 52.9267 8.74552 53.0079 8.82512C53.0893 8.90455 53.1861 8.96709 53.2927 9.00899C53.3992 9.05089 53.5132 9.0713 53.628 9.06901C54.908 9.03632 56.1696 9.37368 57.2558 10.0391C58.342 10.7046 59.2049 11.6688 59.7372 12.8118C60.2694 13.9548 60.4476 15.2261 60.2494 16.4677C60.0512 17.7092 59.4855 18.8662 58.6226 19.7947Z" fill="url(#paint2_linear_667_152)"/>
<path d="M54.8948 12.9849C54.8085 13.0611 54.7384 13.1532 54.6884 13.2559C54.6385 13.3586 54.6097 13.47 54.6037 13.5836C54.5977 13.6973 54.6146 13.8109 54.6534 13.9182C54.6923 14.0254 54.7523 14.1241 54.8301 14.2086C55.0934 14.5125 55.2373 14.8985 55.2361 15.2971C55.2349 15.6956 55.0886 16.0807 54.8236 16.3832C54.6124 16.6094 54.341 16.7735 54.0398 16.857C53.7387 16.9405 53.4197 16.9401 53.1188 16.8559C52.8946 16.7956 52.6551 16.8241 52.4522 16.9354C52.2493 17.0468 52.0994 17.2318 52.0348 17.4506C51.9702 17.6694 51.9962 17.9043 52.1071 18.1045C52.2181 18.3046 52.405 18.454 52.6275 18.5201C52.941 18.6078 53.2654 18.6519 53.5914 18.6513C54.0699 18.6541 54.5435 18.5574 54.9811 18.3679C55.4187 18.1783 55.8103 17.9 56.1301 17.5514C56.6883 16.9292 56.9974 16.13 57 15.3017C57.0026 14.4734 56.6986 13.6723 56.1442 13.0468C55.9869 12.8764 55.7669 12.7742 55.5326 12.7626C55.2983 12.751 55.0689 12.8309 54.8948 12.9849Z" fill="url(#paint3_linear_667_152)"/>
<defs>
<linearGradient id="paint0_linear_667_152" x1="31" y1="0" x2="31" y2="60.8623" gradientUnits="userSpaceOnUse">
<stop offset="0.114583" stop-color="#FB7617"/>
<stop offset="1" stop-color="#FFA800"/>
</linearGradient>
<linearGradient id="paint1_linear_667_152" x1="7.5" y1="12.7615" x2="7.5" y2="18.6514" gradientUnits="userSpaceOnUse">
<stop offset="0.114583" stop-color="#FB7617"/>
<stop offset="1" stop-color="#FFA800"/>
</linearGradient>
<linearGradient id="paint2_linear_667_152" x1="31" y1="0" x2="31" y2="60.8623" gradientUnits="userSpaceOnUse">
<stop offset="0.114583" stop-color="#FB7617"/>
<stop offset="1" stop-color="#FFA800"/>
</linearGradient>
<linearGradient id="paint3_linear_667_152" x1="54.5" y1="12.7615" x2="54.5" y2="18.6514" gradientUnits="userSpaceOnUse">
<stop offset="0.114583" stop-color="#FB7617"/>
<stop offset="1" stop-color="#FFA800"/>
</linearGradient>
</defs>
</svg>
