<svg width="65" height="65" viewBox="0 0 65 65" fill="none" xmlns="http://www.w3.org/2000/svg">
<g clip-path="url(#clip0_667_153)">
<path d="M22.977 20.4361C27.2006 20.4361 29.9609 16.023 29.9609 11.5475C29.9609 7.06246 27.1927 2.65894 22.977 2.65894C18.7534 2.65894 15.9931 7.07199 15.9931 11.5475C15.9931 16.0326 18.7614 20.4361 22.977 20.4361ZM22.977 5.19853C25.386 5.19853 27.4213 8.10598 27.4213 11.5475C27.4213 14.989 25.386 17.8965 22.977 17.8965C20.5679 17.8965 18.5327 14.989 18.5327 11.5475C18.5327 8.10598 20.5681 5.19853 22.977 5.19853Z" fill="url(#paint0_linear_667_153)"/>
<path d="M42.024 20.4361C46.2476 20.4361 49.0079 16.023 49.0079 11.5475C49.0079 7.06246 46.2398 2.65894 42.024 2.65894C37.8004 2.65894 35.0402 7.07199 35.0402 11.5475C35.0402 16.0326 37.8083 20.4361 42.024 20.4361ZM42.024 5.19853C44.4331 5.19853 46.4683 8.10598 46.4683 11.5475C46.4683 14.989 44.4331 17.8965 42.024 17.8965C39.615 17.8965 37.5798 14.989 37.5798 11.5475C37.5798 8.10598 39.615 5.19853 42.024 5.19853Z" fill="url(#paint1_linear_667_153)"/>
<path d="M11.9522 34.483C15.6166 32.3691 15.7903 27.1628 13.5566 23.2935C11.3153 19.4091 6.71671 16.9787 3.06414 19.0876C-0.590965 21.1971 -0.779657 26.3975 1.46026 30.277C3.6998 34.156 8.31602 36.5832 11.9522 34.483ZM4.33381 21.287C6.76916 19.8809 9.92422 22.0796 11.3571 24.5628C11.3571 24.5628 11.3571 24.5629 11.3572 24.563C12.7863 27.0388 13.1228 30.8758 10.6825 32.2835C8.24669 33.6906 5.09137 31.4871 3.65955 29.0073C2.22938 26.5298 1.89618 22.6939 4.33381 21.287Z" fill="url(#paint2_linear_667_153)"/>
<path d="M53.0482 34.4825C56.7053 36.5951 61.3026 34.1537 63.5407 30.2771C65.7945 26.3738 65.5699 21.1843 61.937 19.0877C58.2679 16.9695 53.6733 19.4306 51.4445 23.2932C49.1977 27.1849 49.4009 32.3786 53.0482 34.4825ZM53.6439 24.5626C55.0685 22.0936 58.2238 19.8759 60.6673 21.2869C63.1033 22.6929 62.7733 26.527 61.3415 29.0072C59.9123 31.4824 56.757 33.6921 54.3178 32.283C51.8857 30.88 52.2075 27.0509 53.6439 24.5626Z" fill="url(#paint3_linear_667_153)"/>
<path d="M53.7062 56.8792C54.4075 56.8792 54.976 56.3107 54.976 55.6094C54.976 54.9081 54.4075 54.3396 53.7062 54.3396C53.0049 54.3396 52.4364 54.9081 52.4364 55.6094C52.4364 56.3107 53.0049 56.8792 53.7062 56.8792Z" fill="url(#paint4_linear_667_153)"/>
<path d="M8.52949 51.4719C9.25759 56.8066 13.018 61.1266 18.782 62.1386C22.4458 62.7811 25.9531 61.8651 28.7114 59.785C30.9423 58.1031 34.0585 58.1029 36.2895 59.785C39.1304 61.9274 42.6569 62.763 46.2191 62.1386C47.6767 61.8827 49.0359 61.4124 50.2587 60.7406C50.8734 60.4029 51.0979 59.6309 50.7603 59.0163C50.4226 58.4016 49.6507 58.1771 49.036 58.5147C48.0579 59.052 46.9624 59.4298 45.7801 59.6372C42.9189 60.1388 40.0912 59.4714 37.8184 57.7573C34.6874 55.3966 30.3135 55.3966 27.1823 57.7573C24.9094 59.4714 22.0819 60.1387 19.2208 59.6372C13.9226 58.707 11.5239 54.6318 11.0455 51.1283C10.4231 46.5693 12.5638 42.41 16.5 40.532C18.318 39.6628 19.7711 38.249 20.5914 36.5509C23.1615 31.2309 27.6135 28.0547 32.5003 28.0547C37.3871 28.0547 41.8392 31.2309 44.4092 36.5509C45.2295 38.249 46.6826 39.6628 48.5015 40.5324C52.0878 42.2438 54.213 45.9006 54.0476 50.0759C54.0198 50.7767 54.5655 51.3672 55.2663 51.395C55.965 51.4225 56.5576 50.8772 56.5853 50.1765C56.7915 44.9699 54.1132 40.3963 49.5962 38.2408C48.2965 37.6193 47.2664 36.627 46.696 35.4462C43.924 29.708 38.7378 25.5151 32.5005 25.5151C26.2593 25.5151 21.0747 29.7124 18.3049 35.4462C17.7345 36.6269 16.7044 37.6193 15.4056 38.2403C10.2507 40.7001 7.80202 46.1437 8.52949 51.4719Z" fill="url(#paint5_linear_667_153)"/>
</g>
<defs>
<linearGradient id="paint0_linear_667_153" x1="22.977" y1="2.65894" x2="22.977" y2="20.4361" gradientUnits="userSpaceOnUse">
<stop offset="0.114583" stop-color="#FB7617"/>
<stop offset="1" stop-color="#FFA800"/>
</linearGradient>
<linearGradient id="paint1_linear_667_153" x1="42.024" y1="2.65894" x2="42.024" y2="20.4361" gradientUnits="userSpaceOnUse">
<stop offset="0.114583" stop-color="#FB7617"/>
<stop offset="1" stop-color="#FFA800"/>
</linearGradient>
<linearGradient id="paint2_linear_667_153" x1="7.50846" y1="18.3086" x2="7.50846" y2="35.2575" gradientUnits="userSpaceOnUse">
<stop offset="0.114583" stop-color="#FB7617"/>
<stop offset="1" stop-color="#FFA800"/>
</linearGradient>
<linearGradient id="paint3_linear_667_153" x1="57.4919" y1="18.3079" x2="57.4919" y2="35.262" gradientUnits="userSpaceOnUse">
<stop offset="0.114583" stop-color="#FB7617"/>
<stop offset="1" stop-color="#FFA800"/>
</linearGradient>
<linearGradient id="paint4_linear_667_153" x1="53.7062" y1="54.3396" x2="53.7062" y2="56.8792" gradientUnits="userSpaceOnUse">
<stop offset="0.114583" stop-color="#FB7617"/>
<stop offset="1" stop-color="#FFA800"/>
</linearGradient>
<linearGradient id="paint5_linear_667_153" x1="32.5001" y1="25.5151" x2="32.5001" y2="62.3409" gradientUnits="userSpaceOnUse">
<stop offset="0.114583" stop-color="#FB7617"/>
<stop offset="1" stop-color="#FFA800"/>
</linearGradient>
<clipPath id="clip0_667_153">
<rect width="65" height="65" fill="white"/>
</clipPath>
</defs>
</svg>
