<svg width="33" height="34" viewBox="0 0 33 34" fill="none" xmlns="http://www.w3.org/2000/svg">
<g clip-path="url(#clip0_667_125)">
<path d="M16.5 34C25.6127 34 33 26.3888 33 17C33 7.61116 25.6127 0 16.5 0C7.3873 0 0 7.61116 0 17C0 26.3888 7.3873 34 16.5 34Z" fill="#3B5998"/>
<path d="M20.6481 17.6655H17.7039V28.7786H13.2431V17.6655H11.1216V13.7599H13.2431V11.2325C13.2431 9.42519 14.0764 6.59509 17.7436 6.59509L21.0478 6.60934V10.4004H18.6504C18.2571 10.4004 17.7042 10.6028 17.7042 11.465V13.7635H21.0378L20.6481 17.6655Z" fill="white"/>
</g>
<defs>
<clipPath id="clip0_667_125">
<rect width="33" height="34" fill="white"/>
</clipPath>
</defs>
</svg>
