<svg width="35" height="34" viewBox="0 0 35 34" fill="none" xmlns="http://www.w3.org/2000/svg">
<g clip-path="url(#clip0_667_129)">
<path d="M17.3358 34C26.7247 34 34.3358 26.3888 34.3358 17C34.3358 7.61116 26.7247 0 17.3358 0C7.94697 0 0.335815 7.61116 0.335815 17C0.335815 26.3888 7.94697 34 17.3358 34Z" fill="#03A9F4"/>
</g>
<g clip-path="url(#clip1_667_129)">
<path d="M29.1247 9.95959C28.302 10.3205 27.4254 10.5596 26.5115 10.6758C27.4517 10.1144 28.1693 9.23233 28.5067 8.16909C27.6301 8.69172 26.6622 9.06088 25.6308 9.26689C24.7985 8.38063 23.6122 7.83173 22.318 7.83173C19.8072 7.83173 17.7858 9.86972 17.7858 12.3681C17.7858 12.7276 17.8162 13.0733 17.8909 13.4023C14.1204 13.2184 10.7842 11.4113 8.54293 8.65854C8.15165 9.3374 7.92213 10.1144 7.92213 10.9509C7.92213 12.5216 8.73097 13.9139 9.93662 14.72C9.20797 14.7061 8.49316 14.4946 7.88757 14.1614C7.88757 14.1752 7.88757 14.1932 7.88757 14.2112C7.88757 16.4151 9.45961 18.2457 11.5211 18.6674C11.1519 18.7683 10.7496 18.8167 10.332 18.8167C10.0417 18.8167 9.74858 18.8001 9.47344 18.7393C10.0611 20.5353 11.7285 21.8557 13.7112 21.8986C12.1682 23.1056 10.209 23.8328 8.08805 23.8328C7.71612 23.8328 7.3594 23.8163 7.00269 23.7706C9.01164 25.0661 11.3925 25.8059 13.9601 25.8059C22.3056 25.8059 26.8682 18.8927 26.8682 12.9004C26.8682 12.6999 26.8613 12.5064 26.8517 12.3142C27.7517 11.6754 28.508 10.8776 29.1247 9.95959Z" fill="white"/>
</g>
<defs>
<clipPath id="clip0_667_129">
<rect width="34" height="34" fill="white" transform="translate(0.335815)"/>
</clipPath>
<clipPath id="clip1_667_129">
<rect width="22.122" height="22.122" fill="white" transform="translate(7.00269 5.75781)"/>
</clipPath>
</defs>
</svg>
