<svg width="316" height="31" viewBox="0 0 316 31" fill="none" xmlns="http://www.w3.org/2000/svg">
<path d="M6.569 25.449H15.999V30H0.829V1.382H6.569V25.449ZM25.3874 1.382V30H19.6474V1.382H25.3874ZM36.7985 25.449H46.2285V30H31.0585V1.382H36.7985V25.449ZM63.1609 30.287C60.4822 30.287 58.0222 29.6583 55.7809 28.401C53.5395 27.1437 51.7629 25.408 50.4509 23.194C49.1389 20.9527 48.4829 18.4243 48.4829 15.609C48.4829 12.821 49.1389 10.32 50.4509 8.106C51.7629 5.86466 53.5395 4.11533 55.7809 2.858C58.0222 1.60067 60.4822 0.972 63.1609 0.972C65.8669 0.972 68.3269 1.60067 70.5409 2.858C72.7822 4.11533 74.5452 5.86466 75.8299 8.106C77.1419 10.32 77.7979 12.821 77.7979 15.609C77.7979 18.4243 77.1419 20.9527 75.8299 23.194C74.5452 25.408 72.7822 27.1437 70.5409 28.401C68.2995 29.6583 65.8395 30.287 63.1609 30.287ZM63.1609 25.162C64.8829 25.162 66.3999 24.7793 67.7119 24.014C69.0239 23.2213 70.0489 22.1007 70.7869 20.652C71.5249 19.2033 71.8939 17.5223 71.8939 15.609C71.8939 13.6957 71.5249 12.0283 70.7869 10.607C70.0489 9.15833 69.0239 8.05133 67.7119 7.286C66.3999 6.52067 64.8829 6.138 63.1609 6.138C61.4389 6.138 59.9082 6.52067 58.5689 7.286C57.2569 8.05133 56.2319 9.15833 55.4939 10.607C54.7559 12.0283 54.3869 13.6957 54.3869 15.609C54.3869 17.5223 54.7559 19.2033 55.4939 20.652C56.2319 22.1007 57.2569 23.2213 58.5689 24.014C59.9082 24.7793 61.4389 25.162 63.1609 25.162ZM83.2163 1.382H89.2433L84.8153 11.714H80.8793L83.2163 1.382ZM103.24 30.287C101.245 30.287 99.4409 29.9453 97.8283 29.262C96.2429 28.5787 94.9856 27.5947 94.0563 26.31C93.1269 25.0253 92.6486 23.5083 92.6213 21.759H98.7713C98.8533 22.9343 99.2633 23.8637 100.001 24.547C100.767 25.2303 101.805 25.572 103.117 25.572C104.457 25.572 105.509 25.2577 106.274 24.629C107.04 23.973 107.422 23.1257 107.422 22.087C107.422 21.2397 107.163 20.5427 106.643 19.996C106.124 19.4493 105.468 19.0257 104.675 18.725C103.91 18.397 102.844 18.0417 101.477 17.659C99.6186 17.1123 98.1016 16.5793 96.9263 16.06C95.7783 15.5133 94.7806 14.707 93.9333 13.641C93.1133 12.5477 92.7033 11.099 92.7033 9.295C92.7033 7.60033 93.1269 6.12433 93.9743 4.867C94.8216 3.60967 96.0106 2.653 97.5413 1.997C99.0719 1.31367 100.821 0.972 102.789 0.972C105.741 0.972 108.133 1.69633 109.964 3.145C111.823 4.56633 112.848 6.56167 113.039 9.131H106.725C106.671 8.147 106.247 7.34067 105.454 6.712C104.689 6.056 103.664 5.728 102.379 5.728C101.259 5.728 100.357 6.015 99.6733 6.589C99.0173 7.163 98.6893 7.99667 98.6893 9.09C98.6893 9.85533 98.9353 10.4977 99.4273 11.017C99.9466 11.509 100.575 11.919 101.313 12.247C102.079 12.5477 103.145 12.903 104.511 13.313C106.37 13.8597 107.887 14.4063 109.062 14.953C110.238 15.4997 111.249 16.3197 112.096 17.413C112.944 18.5063 113.367 19.9413 113.367 21.718C113.367 23.2487 112.971 24.67 112.178 25.982C111.386 27.294 110.224 28.3463 108.693 29.139C107.163 29.9043 105.345 30.287 103.24 30.287Z" fill="#FB6C1C"/>
<path d="M148.982 10.238C148.982 11.7687 148.613 13.2037 147.875 14.543C147.165 15.8823 146.03 16.962 144.472 17.782C142.942 18.602 141.001 19.012 138.65 19.012H133.853V30H128.113V1.382H138.65C140.864 1.382 142.75 1.76467 144.308 2.53C145.866 3.29533 147.028 4.34767 147.793 5.687C148.586 7.02633 148.982 8.54333 148.982 10.238ZM138.404 14.379C139.99 14.379 141.165 14.0237 141.93 13.313C142.696 12.575 143.078 11.55 143.078 10.238C143.078 7.45 141.52 6.056 138.404 6.056H133.853V14.379H138.404ZM158.798 6.015V13.19H168.433V17.741H158.798V25.326H169.663V30H153.058V1.341H169.663V6.015H158.798ZM194.354 1.382V6.015H186.728V30H180.988V6.015H173.362V1.382H194.354ZM218.192 30.287C216.197 30.287 214.393 29.9453 212.78 29.262C211.195 28.5787 209.938 27.5947 209.008 26.31C208.079 25.0253 207.601 23.5083 207.573 21.759H213.723C213.805 22.9343 214.215 23.8637 214.953 24.547C215.719 25.2303 216.757 25.572 218.069 25.572C219.409 25.572 220.461 25.2577 221.226 24.629C221.992 23.973 222.374 23.1257 222.374 22.087C222.374 21.2397 222.115 20.5427 221.595 19.996C221.076 19.4493 220.42 19.0257 219.627 18.725C218.862 18.397 217.796 18.0417 216.429 17.659C214.571 17.1123 213.054 16.5793 211.878 16.06C210.73 15.5133 209.733 14.707 208.885 13.641C208.065 12.5477 207.655 11.099 207.655 9.295C207.655 7.60033 208.079 6.12433 208.926 4.867C209.774 3.60967 210.963 2.653 212.493 1.997C214.024 1.31367 215.773 0.972 217.741 0.972C220.693 0.972 223.085 1.69633 224.916 3.145C226.775 4.56633 227.8 6.56167 227.991 9.131H221.677C221.623 8.147 221.199 7.34067 220.406 6.712C219.641 6.056 218.616 5.728 217.331 5.728C216.211 5.728 215.309 6.015 214.625 6.589C213.969 7.163 213.641 7.99667 213.641 9.09C213.641 9.85533 213.887 10.4977 214.379 11.017C214.899 11.509 215.527 11.919 216.265 12.247C217.031 12.5477 218.097 12.903 219.463 13.313C221.322 13.8597 222.839 14.4063 224.014 14.953C225.19 15.4997 226.201 16.3197 227.048 17.413C227.896 18.5063 228.319 19.9413 228.319 21.718C228.319 23.2487 227.923 24.67 227.13 25.982C226.338 27.294 225.176 28.3463 223.645 29.139C222.115 29.9043 220.297 30.287 218.192 30.287ZM257.035 1.382V30H251.295V17.823H239.036V30H233.296V1.382H239.036V13.149H251.295V1.382H257.035ZM275.968 30.287C273.29 30.287 270.83 29.6583 268.588 28.401C266.347 27.1437 264.57 25.408 263.258 23.194C261.946 20.9527 261.29 18.4243 261.29 15.609C261.29 12.821 261.946 10.32 263.258 8.106C264.57 5.86466 266.347 4.11533 268.588 2.858C270.83 1.60067 273.29 0.972 275.968 0.972C278.674 0.972 281.134 1.60067 283.348 2.858C285.59 4.11533 287.353 5.86466 288.637 8.106C289.949 10.32 290.605 12.821 290.605 15.609C290.605 18.4243 289.949 20.9527 288.637 23.194C287.353 25.408 285.59 27.1437 283.348 28.401C281.107 29.6583 278.647 30.287 275.968 30.287ZM275.968 25.162C277.69 25.162 279.207 24.7793 280.519 24.014C281.831 23.2213 282.856 22.1007 283.594 20.652C284.332 19.2033 284.701 17.5223 284.701 15.609C284.701 13.6957 284.332 12.0283 283.594 10.607C282.856 9.15833 281.831 8.05133 280.519 7.286C279.207 6.52067 277.69 6.138 275.968 6.138C274.246 6.138 272.716 6.52067 271.376 7.286C270.064 8.05133 269.039 9.15833 268.301 10.607C267.563 12.0283 267.194 13.6957 267.194 15.609C267.194 17.5223 267.563 19.2033 268.301 20.652C269.039 22.1007 270.064 23.2213 271.376 24.014C272.716 24.7793 274.246 25.162 275.968 25.162ZM315.745 10.238C315.745 11.7687 315.376 13.2037 314.638 14.543C313.927 15.8823 312.793 16.962 311.235 17.782C309.704 18.602 307.764 19.012 305.413 19.012H300.616V30H294.876V1.382H305.413C307.627 1.382 309.513 1.76467 311.071 2.53C312.629 3.29533 313.791 4.34767 314.556 5.687C315.349 7.02633 315.745 8.54333 315.745 10.238ZM305.167 14.379C306.752 14.379 307.928 14.0237 308.693 13.313C309.458 12.575 309.841 11.55 309.841 10.238C309.841 7.45 308.283 6.056 305.167 6.056H300.616V14.379H305.167Z" fill="#3F2A1E"/>
</svg>
